<svg width="868" height="312" viewBox="0 0 868 312" fill="none" xmlns="http://www.w3.org/2000/svg">
<path d="M40 51.1389C40.99 51.1389 41.98 51.1389 43 51.1389C44.6875 53.1389 44.6875 53.1389 46 55.1389C45.67 55.4689 45.34 55.7989 45 56.1389C44.911 58.2283 44.8931 60.3206 44.9023 62.4119C44.9038 63.0673 44.9053 63.7228 44.9068 64.3981C44.9106 65.8278 44.9167 67.2574 44.9248 68.6869C44.9376 70.9584 44.9441 73.2298 44.949 75.5013C44.9624 81.1529 44.9864 86.8045 45.0104 92.4561C45.0302 97.2153 45.0458 101.974 45.0559 106.734C45.0624 108.955 45.0749 111.177 45.0876 113.398C45.1148 121.033 44.8935 128.551 44 136.139C44.99 136.469 45.98 136.799 47 137.139C46.34 137.799 45.68 138.459 45 139.139C45.33 140.129 45.66 141.119 46 142.139C46.6432 141.314 47.2865 140.489 47.9492 139.639C57.3404 127.624 66.9797 115.817 76.6445 104.022C80.0564 99.846 83.4505 95.6557 86.8472 91.4675C90.9131 86.4607 95.0145 81.4842 99.125 76.5139C104.518 69.9898 109.79 63.3812 114.988 56.7014C117 54.1389 117 54.1389 118 53.1389C119.504 53.0458 121.013 53.0215 122.52 53.0254C123.961 53.0255 123.961 53.0255 125.432 53.0256C126.999 53.0334 126.999 53.0334 128.598 53.0413C129.662 53.0427 130.726 53.0441 131.822 53.0455C135.235 53.0512 138.649 53.0637 142.062 53.0764C144.37 53.0814 146.678 53.086 148.986 53.0901C154.658 53.1011 160.329 53.1179 166 53.1389C164.342 57.5819 162.037 60.9227 159.062 64.5764C158.061 65.8276 157.06 67.0789 156.059 68.3303C155.548 68.9647 155.037 69.5991 154.511 70.2527C152.64 72.5885 150.798 74.9464 148.957 77.3066C142.968 84.982 136.834 92.5374 130.679 100.08C127.845 103.555 125.016 107.034 122.188 110.514C121.642 111.185 121.097 111.856 120.535 112.547C116.331 117.724 112.156 122.924 108 128.139C106.667 129.806 105.334 131.473 104 133.139C103.35 133.951 102.701 134.763 102.031 135.6C98.6875 139.78 95.3438 143.959 92 148.139C93.6852 152.03 96.2457 155.168 98.875 158.451C99.3597 159.062 99.8444 159.673 100.344 160.303C101.892 162.252 103.445 164.196 105 166.139C105.749 167.076 105.749 167.076 106.513 168.031C108.51 170.528 110.508 173.025 112.508 175.52C116.416 180.396 120.282 185.303 124.137 190.221C126.74 193.541 129.359 196.848 132 200.139C136.567 205.832 141.068 211.577 145.572 217.32C146.978 219.112 148.387 220.901 149.797 222.69C155.181 229.524 160.52 236.39 165.809 243.299C167.264 245.186 168.779 247.029 170.348 248.823C170.893 249.587 171.438 250.351 172 251.139C171.67 252.129 171.34 253.119 171 254.139C166.772 254.188 162.548 254.198 158.32 254.162C154.224 254.129 150.136 254.172 146.041 254.264C143.197 254.316 140.354 254.319 137.51 254.315C136.098 254.323 134.686 254.349 133.274 254.396C121.951 254.753 121.951 254.753 117.209 250.83C114.907 248.036 112.929 245.199 111 242.139C110.134 240.997 109.255 239.864 108.355 238.748C107.64 237.805 106.925 236.861 106.188 235.889C102.046 230.46 97.8066 225.116 93.5298 219.794C90.1774 215.619 86.8594 211.42 83.5625 207.201C79.5981 202.134 75.5674 197.124 71.5 192.139C67.3303 187.027 63.1965 181.892 59.125 176.701C58.6752 176.128 58.2254 175.555 57.762 174.964C55.7712 172.421 53.7935 169.869 51.832 167.303C51.2068 166.486 50.5816 165.668 49.9375 164.826C49.4103 164.129 48.883 163.432 48.3398 162.713C47.0666 161.009 47.0666 161.009 45 160.139C45.0022 161.144 45.0044 162.149 45.0067 163.185C45.0271 172.688 45.042 182.192 45.0518 191.695C45.057 196.58 45.0641 201.465 45.0754 206.35C45.0864 211.071 45.0923 215.791 45.0949 220.511C45.0967 222.306 45.1003 224.101 45.1057 225.896C45.1313 234.71 45.1331 243.38 44 252.139C44.66 252.469 45.32 252.799 46 253.139C41.3591 254.048 36.8658 254.285 32.1523 254.272C31.0509 254.273 31.0509 254.273 29.9271 254.275C28.3833 254.275 26.8395 254.273 25.2957 254.269C22.9412 254.264 20.5869 254.269 18.2324 254.276C16.7266 254.275 15.2207 254.274 13.7148 254.272C13.0158 254.274 12.3167 254.276 11.5964 254.278C7.84527 254.26 4.7263 253.884 1 253.139C0.67 187.469 0.34 121.799 0 54.1389C5.4613 52.5785 9.42227 51.8611 14.9023 51.9436C15.6249 51.9464 16.3475 51.9493 17.0919 51.9522C19.374 51.9633 21.6556 51.9884 23.9375 52.0139C25.4954 52.024 27.0534 52.0331 28.6113 52.0413C32.4077 52.0632 36.2038 52.0976 40 52.1389C40 51.8089 40 51.4789 40 51.1389Z" fill="#2766FE"/>
<path d="M281 106.139C281.495 107.129 281.495 107.129 282 108.139C282.66 108.139 283.32 108.139 284 108.139C289.568 124.665 294.971 141.239 300.239 157.863C301.252 161.054 302.27 164.242 303.292 167.43C304.282 170.529 305.264 173.631 306.246 176.733C306.61 177.863 306.973 178.993 307.348 180.158C309.139 185.851 310.51 191.185 311 197.139C311.66 197.139 312.32 197.139 313 197.139C313.099 196.567 313.199 195.995 313.301 195.406C314.644 188.164 316.682 181.235 318.887 174.213C319.267 172.99 319.647 171.766 320.039 170.506C320.842 167.922 321.648 165.34 322.457 162.758C323.472 159.517 324.482 156.274 325.489 153.03C327.607 146.208 329.751 139.395 331.912 132.587C332.957 129.275 333.981 125.957 335.002 122.637C335.611 120.707 336.221 118.776 336.832 116.846C337.097 115.967 337.361 115.088 337.633 114.182C338.406 111.787 338.406 111.787 340 108.139C343.702 106.724 347.625 106.995 351.539 107.006C352.622 107.005 352.622 107.005 353.727 107.003C355.248 107.003 356.77 107.004 358.291 107.009C360.624 107.014 362.956 107.009 365.289 107.002C366.768 107.003 368.247 107.004 369.727 107.006C370.426 107.004 371.124 107.002 371.845 107C376.77 107.024 376.77 107.024 379 108.139C378.303 112.016 377.262 115.677 376.061 119.427C375.865 120.041 375.669 120.656 375.467 121.288C374.815 123.329 374.16 125.369 373.504 127.408C373.038 128.864 372.573 130.319 372.108 131.774C370.856 135.689 369.6 139.603 368.344 143.516C367.039 147.583 365.737 151.652 364.434 155.72C361.797 163.956 359.156 172.19 356.513 180.424C355.079 184.893 353.646 189.361 352.213 193.83C349.748 201.517 347.281 209.203 344.812 216.889C344.44 218.05 344.067 219.211 343.683 220.407C342.629 223.688 341.575 226.968 340.52 230.248C340.069 231.65 340.069 231.65 339.61 233.08C339.04 234.851 338.467 236.622 337.891 238.391C337.237 240.406 336.597 242.425 335.963 244.447C335.614 245.539 335.265 246.632 334.905 247.757C334.589 248.761 334.272 249.765 333.947 250.799C333 253.139 333 253.139 331 254.139C328.371 254.156 325.774 254.112 323.148 254.018C322.374 253.994 321.6 253.971 320.803 253.946C318.327 253.87 315.851 253.786 313.375 253.701C311.698 253.648 310.021 253.595 308.344 253.543C304.229 253.414 300.114 253.278 296 253.139C292.928 244.88 290.113 236.552 287.375 228.178C286.942 226.857 286.509 225.536 286.076 224.216C285.174 221.465 284.273 218.713 283.373 215.961C282.232 212.472 281.089 208.985 279.944 205.497C279.051 202.774 278.159 200.051 277.267 197.327C276.645 195.428 276.023 193.529 275.4 191.63C272.849 183.825 270.388 175.996 268 168.139C265.833 171.39 264.8 174.543 263.672 178.233C263.446 178.956 263.221 179.679 262.988 180.424C262.497 182 262.007 183.577 261.52 185.154C260.199 189.419 258.855 193.677 257.516 197.936C256.941 199.767 256.366 201.599 255.791 203.43C255.498 204.362 255.206 205.294 254.905 206.254C254.293 208.205 253.682 210.155 253.072 212.105C251.204 218.076 249.321 224.042 247.418 230.001C246.806 231.925 246.201 233.85 245.601 235.776C244.758 238.48 243.897 241.177 243.031 243.873C242.784 244.683 242.536 245.493 242.281 246.327C240.539 251.658 240.539 251.658 238.3 253.657C234.906 254.368 231.612 254.269 228.172 254.115C227.423 254.09 226.674 254.065 225.902 254.04C223.518 253.958 221.134 253.861 218.75 253.764C217.13 253.706 215.51 253.648 213.891 253.592C209.927 253.452 205.963 253.299 202 253.139C201.734 252.38 201.469 251.62 201.195 250.838C200.842 249.844 200.489 248.85 200.125 247.826C199.777 246.84 199.429 245.854 199.07 244.838C198.047 241.983 198.047 241.983 196 239.139C195 236.139 195 236.139 194.586 233.436C193.911 229.639 192.811 226.049 191.625 222.389C191.175 220.974 190.726 219.558 190.277 218.143C190.059 217.46 189.841 216.777 189.617 216.073C188.795 213.495 187.984 210.913 187.188 208.326C186.954 207.577 186.721 206.829 186.48 206.057C186 204.139 186 204.139 186 201.139C185.34 200.809 184.68 200.479 184 200.139C183.274 198.025 183.274 198.025 182.599 195.27C181.099 189.443 179.311 183.758 177.418 178.049C177.081 177.024 176.745 176 176.398 174.944C175.33 171.696 174.259 168.448 173.188 165.201C164.701 139.488 164.701 139.488 160.98 126.678C159.901 122.992 158.741 119.405 157.333 115.831C156 112.139 156 112.139 156 108.139C161.214 107.922 166.428 107.725 171.643 107.547C173.418 107.483 175.192 107.414 176.966 107.34C179.515 107.234 182.063 107.147 184.613 107.065C185.407 107.027 186.201 106.99 187.019 106.951C192.547 106.8 192.547 106.8 194.624 108.353C196.275 110.496 196.955 112.377 197.758 114.96C198.07 115.945 198.381 116.93 198.702 117.945C199.03 119.016 199.358 120.087 199.695 121.19C200.045 122.304 200.394 123.419 200.754 124.567C201.886 128.193 203.006 131.822 204.125 135.451C204.895 137.923 205.665 140.395 206.436 142.866C210.906 157.228 215.322 171.607 219.575 186.035C219.89 187.105 220.206 188.176 220.531 189.28C220.795 190.182 221.058 191.085 221.33 192.015C221.946 194.162 221.946 194.162 223 196.139C229.223 177.877 235.113 159.534 240.712 141.07C243.155 133.028 245.657 125.01 248.297 117.03C248.552 116.252 248.808 115.474 249.071 114.673C250.879 109.26 250.879 109.26 252 108.139C254.059 107.993 256.124 107.911 258.188 107.858C259.443 107.82 260.699 107.783 261.992 107.744C264 107.691 266.008 107.639 268.017 107.587C269.949 107.535 271.881 107.478 273.812 107.42C275.555 107.375 275.555 107.375 277.332 107.328C279.92 107.437 279.92 107.437 281 106.139Z" fill="#2766FE"/>
<path d="M724.383 0.00613403C725.792 0.00469894 725.792 0.00469894 727.23 0.00323486C729.198 0.00256018 731.166 0.0043642 733.134 0.00857544C736.125 0.013946 739.115 0.00859981 742.105 0.00222778C744.031 0.00288845 745.957 0.00416939 747.883 0.00613403C748.764 0.0041098 749.646 0.00208557 750.554 0C765.918 0.0573333 765.918 0.0573332 768 2.13895C768.087 3.91966 768.107 5.70378 768.098 7.4866C768.094 8.56619 768.091 9.64578 768.088 10.7581C768.079 11.8944 768.071 13.0307 768.062 14.2014C768.058 15.3416 768.053 16.4818 768.049 17.6565C768.037 20.484 768.019 23.3115 768 26.1389C761.73 26.1389 755.46 26.1389 749 26.1389C749 29.7689 749 33.3989 749 37.1389C749.981 37.2369 750.962 37.3349 751.973 37.4358C778.903 40.3278 802.479 50.4243 823 68.1389C824.208 69.1309 824.208 69.1309 825.441 70.1429C832.731 76.3374 838.352 83.4824 844 91.1389C844.712 92.0722 845.423 93.0055 846.156 93.9671C857.279 109.416 862.669 127.612 866 146.139C866.201 147.25 866.402 148.361 866.609 149.506C870.212 183.014 862.85 217.117 842.062 244.139C840.401 246.174 838.732 248.167 837 250.139C836.482 250.733 835.963 251.326 835.429 251.938C833.8 253.789 832.156 255.624 830.5 257.451C829.983 258.022 829.466 258.592 828.934 259.18C827.666 260.541 826.337 261.846 825 263.139C824.34 263.139 823.68 263.139 823 263.139C823 263.799 823 264.459 823 265.139C820.708 267.093 818.415 268.91 816 270.701C815.278 271.237 814.556 271.773 813.812 272.325C784.909 293.369 749.711 301.659 714.301 296.612C687.506 291.799 665.73 279.724 646 261.139C645.348 260.551 644.695 259.963 644.023 259.358C619.891 236.715 607.4 203.612 606.092 171.003C605.186 135.863 616.713 103.057 640.629 77.1624C660.207 56.5499 684.136 43.8183 712 38.1389C713.002 37.9327 714.003 37.7264 715.035 37.5139C717.354 37.0442 719.677 36.5897 722 36.1389C722 33.1689 722 30.1989 722 27.1389C720.64 27.1505 719.28 27.1621 717.879 27.1741C716.107 27.1835 714.335 27.1926 712.562 27.2014C711.665 27.2098 710.767 27.2182 709.842 27.2268C708.561 27.2317 708.561 27.2317 707.254 27.2366C706.463 27.2418 705.672 27.2471 704.858 27.2525C703 27.1389 703 27.1389 702 26.1389C701.9 24.3704 701.869 22.5978 701.867 20.8264C701.866 19.7514 701.865 18.6763 701.863 17.5686C701.867 16.4368 701.871 15.305 701.875 14.1389C701.871 13.0071 701.867 11.8754 701.863 10.7093C701.865 9.63418 701.866 8.5591 701.867 7.45145C701.868 6.45758 701.869 5.46371 701.871 4.43973C702 2.13895 702 2.13895 703 1.13895C710.083 0.106585 717.238 -0.010349 724.383 0.00613403ZM684 69.1389C682.982 69.6636 681.963 70.1882 680.914 70.7288C674.266 74.3602 668.873 78.6459 663.394 83.8655C661.58 85.5884 659.797 87.1304 657.812 88.6389C640.21 104.286 629.272 131.208 627.794 154.37C626.899 186.286 632.617 214.387 654 239.139C654.88 240.2 654.88 240.2 655.777 241.283C670.491 258.733 690.945 269.975 713 275.139C714.129 275.414 714.129 275.414 715.281 275.694C745.769 280.687 776.584 273.322 801.712 255.64C804.725 253.411 806.531 251.581 808 248.139C808.928 247.922 808.928 247.922 809.875 247.701C813.082 246.853 814.181 244.803 816 242.139C816 241.479 816 240.819 816 240.139C816.585 239.89 817.17 239.641 817.773 239.385C830.256 232.399 838.116 210.955 842.039 198.002C846.981 178.135 847.301 159.129 843 139.139C842.745 137.936 842.489 136.734 842.227 135.494C835.618 108.967 815.646 85.9298 792.547 72.0218C759.855 53.1903 717.539 51.5205 684 69.1389Z" fill="#FED703"/>
<path d="M554.445 117.928C556.017 119.271 557.52 120.695 559 122.139C559 117.849 559 113.559 559 109.139C563.308 106.985 565.037 106.956 569.734 107.162C571.678 107.24 571.678 107.24 573.66 107.319C575.023 107.384 576.387 107.449 577.75 107.514C579.129 107.572 580.508 107.63 581.887 107.686C585.258 107.827 588.629 107.979 592 108.139C593.536 111.21 593.144 114.43 593.14 117.8C593.143 118.6 593.146 119.4 593.149 120.224C593.158 122.92 593.16 125.615 593.161 128.311C593.166 130.237 593.171 132.163 593.176 134.09C593.189 139.334 593.196 144.577 593.2 149.821C593.203 153.094 593.207 156.367 593.212 159.64C593.225 169.87 593.235 180.101 593.239 190.332C593.243 202.159 593.261 213.987 593.29 225.814C593.311 234.945 593.322 244.076 593.323 253.208C593.324 258.667 593.33 264.125 593.348 269.584C593.364 274.717 593.366 279.849 593.358 284.982C593.357 286.869 593.361 288.756 593.371 290.643C593.384 293.212 593.378 295.781 593.367 298.351C593.38 299.48 593.38 299.48 593.392 300.631C593.364 303.541 593.333 305.629 591.716 308.104C588.591 309.989 584.937 309.499 581.395 309.432C580.555 309.428 579.716 309.423 578.851 309.419C576.171 309.402 573.492 309.365 570.812 309.326C568.995 309.311 567.178 309.298 565.361 309.285C560.907 309.252 556.454 309.201 552 309.139C550.995 305.809 550.885 302.802 550.902 299.332C550.906 298.164 550.909 296.996 550.912 295.793C550.921 294.536 550.929 293.278 550.937 291.983C550.943 290.005 550.949 288.028 550.955 286.05C550.968 281.877 550.99 277.704 551.01 273.531C551.027 270.093 551.042 266.655 551.051 263.218C551.059 260.64 551.071 258.063 551.088 255.485C551.091 254.317 551.094 253.149 551.098 251.946C551.106 250.405 551.106 250.405 551.114 248.833C551.012 246.432 550.691 244.43 550 242.139C549.182 242.719 549.182 242.719 548.348 243.311C533.041 253.882 517.729 255.925 499.457 253.709C482.826 250.073 468.654 239.977 459 226.139C457.345 223.447 455.751 220.742 454.227 217.975C453.822 217.369 453.417 216.763 453 216.139C452.34 216.139 451.68 216.139 451 216.139C450.845 214.53 450.845 214.53 450.687 212.889C450.113 208.201 448.942 203.722 447.719 199.166C442.925 178.975 446.526 156.352 457.125 138.576C468.096 122.275 482.985 110.574 502.561 106.512C520.986 103.695 539.263 106.82 554.445 117.928ZM497 149.139C488.679 160.403 486.139 172.309 487 186.139C488.155 193.648 489.978 200.649 494 207.139C494.536 208.005 495.072 208.871 495.625 209.764C501.973 216.112 509.849 220.002 518.812 220.201C528.489 219.806 535.677 216.958 542.375 209.889C551.28 198.973 552.801 186.189 551.473 172.432C549.826 160.961 545.129 151.492 536 144.139C523.668 136.945 506.99 138.891 497 149.139Z" fill="#2766FE"/>
<path d="M391 107.139C410.8 107.634 410.8 107.634 431 108.139C431 155.989 431 203.839 431 253.139C425.908 253.866 421.225 254.287 416.133 254.272C415.052 254.273 415.052 254.273 413.95 254.275C412.443 254.275 410.935 254.273 409.428 254.269C407.111 254.264 404.794 254.269 402.476 254.276C401.008 254.275 399.539 254.274 398.07 254.272C397.028 254.275 397.028 254.275 395.965 254.278C391.115 254.254 391.115 254.254 390 253.139C389.901 251.268 389.874 249.394 389.873 247.521C389.87 246.301 389.867 245.081 389.864 243.824C389.866 242.459 389.868 241.095 389.871 239.731C389.869 238.304 389.867 236.877 389.865 235.449C389.861 231.563 389.862 227.677 389.866 223.791C389.868 219.733 389.866 215.674 389.864 211.616C389.862 204.8 389.865 197.984 389.87 191.168C389.875 183.276 389.873 175.384 389.868 167.492C389.863 160.729 389.863 153.966 389.865 147.202C389.867 143.157 389.867 139.112 389.864 135.067C389.861 131.266 389.863 127.464 389.869 123.662C389.87 122.263 389.869 120.863 389.867 119.464C389.865 117.562 389.869 115.659 389.873 113.757C389.873 112.69 389.874 111.623 389.874 110.524C390 108.139 390 108.139 391 107.139Z" fill="#2766FE"/>
<path d="M783 108.139C790.59 108.139 798.18 108.139 806 108.139C806 130.579 806 153.019 806 176.139C811.61 176.139 817.22 176.139 823 176.139C823.754 183.427 824.086 189.897 823 197.139C817.39 197.139 811.78 197.139 806 197.139C806.012 198.715 806.023 200.292 806.035 201.916C806.045 203.97 806.054 206.023 806.062 208.076C806.071 209.117 806.079 210.158 806.088 211.231C806.091 212.22 806.094 213.209 806.098 214.229C806.103 215.145 806.108 216.062 806.114 217.006C806 219.139 806 219.139 805 220.139C803.523 220.238 802.042 220.27 800.562 220.272C799.221 220.274 799.221 220.274 797.852 220.276C796.44 220.27 796.44 220.27 795 220.264C793.588 220.27 793.588 220.27 792.148 220.276C791.254 220.274 790.359 220.273 789.438 220.272C788.611 220.271 787.785 220.269 786.934 220.268C785 220.139 785 220.139 784 219.139C784 211.879 784 204.619 784 197.139C768.49 197.139 752.98 197.139 737 197.139C737 175.654 737 175.654 743.73 167.44C748.006 161.969 751.608 156.066 755.312 150.201C756.662 148.088 758.012 145.974 759.363 143.862C759.985 142.882 760.608 141.903 761.249 140.893C762.357 139.151 763.47 137.412 764.591 135.677C767.1 132.188 767.1 132.188 768 128.139C768.727 127.422 769.454 126.705 770.203 125.967C773.297 122.839 775.455 119.613 777.75 115.889C781.926 109.213 781.926 109.213 783 108.139ZM783 143.139C782.147 144.357 781.343 145.61 780.559 146.873C780.061 147.67 779.563 148.467 779.05 149.287C778.518 150.146 777.986 151.004 777.438 151.889C773.203 158.689 768.876 165.361 764.23 171.889C763.824 172.631 763.418 173.374 763 174.139C763.33 175.129 763.66 176.119 764 177.139C770.6 177.139 777.2 177.139 784 177.139C784 165.919 784 154.699 784 143.139C783.67 143.139 783.34 143.139 783 143.139Z" fill="#FED602"/>
<path d="M721.031 114.447C727.653 120.136 731.264 127.102 732.316 135.733C732.935 149.632 726.176 161.208 717.105 171.233C715.978 172.353 714.834 173.457 713.672 174.541C711.859 176.273 710.252 178.107 708.625 180.014C704.661 184.599 700.554 189.132 696 193.139C695.34 193.139 694.68 193.139 694 193.139C693.711 193.778 693.423 194.418 693.125 195.076C692 197.139 692 197.139 690 198.139C691.267 198.164 692.534 198.189 693.84 198.215C698.523 198.309 703.206 198.409 707.889 198.511C709.92 198.555 711.95 198.596 713.98 198.636C716.892 198.694 719.803 198.757 722.715 198.822C723.628 198.839 724.542 198.856 725.483 198.873C731.886 199.025 731.886 199.025 733 200.139C733.099 201.542 733.131 202.951 733.133 204.358C733.134 205.207 733.135 206.057 733.137 206.932C733.133 207.825 733.129 208.718 733.125 209.639C733.129 210.532 733.133 211.426 733.137 212.346C733.135 213.195 733.134 214.045 733.133 214.92C733.132 215.705 733.131 216.489 733.129 217.297C733 219.139 733 219.139 732 220.139C729.71 220.244 727.417 220.277 725.125 220.284C724.407 220.288 723.688 220.291 722.947 220.294C720.56 220.304 718.173 220.306 715.785 220.307C714.132 220.31 712.479 220.313 710.827 220.317C707.357 220.323 703.888 220.325 700.418 220.324C695.965 220.324 691.511 220.338 687.058 220.355C683.643 220.366 680.227 220.368 676.812 220.368C675.17 220.369 673.528 220.373 671.885 220.381C669.592 220.391 667.298 220.388 665.004 220.382C663.697 220.383 662.39 220.385 661.043 220.386C658 220.139 658 220.139 656 218.139C655.734 215.713 655.734 215.713 655.75 212.826C655.745 211.882 655.74 210.937 655.734 209.963C656.017 206.955 656.584 204.806 658 202.139C659.485 201.644 659.485 201.644 661 201.139C661 200.479 661 199.819 661 199.139C662.22 197.931 662.22 197.931 664.059 196.436C670.356 191.074 676.174 185.225 682.036 179.398C683.384 178.061 684.737 176.729 686.094 175.402C700.892 161.535 700.892 161.535 708 143.139C707.671 138.488 706.561 135.054 704.125 131.076C699.326 128.101 694.505 128.443 689 129.139C685.212 130.247 685.212 130.247 682.812 133.139C681.854 136.677 681.128 140.23 680.465 143.834C680 146.139 680 146.139 679 149.139C678.01 149.139 677.02 149.139 676 149.139C676 148.479 676 147.819 676 147.139C675.326 146.873 674.652 146.608 673.957 146.334C670.513 144.942 667.099 143.483 663.688 142.014C663.042 141.737 662.397 141.46 661.732 141.174C660.155 140.496 658.577 139.818 657 139.139C659.375 128.18 663.43 118.573 673 112.139C688.242 102.877 706.614 104.026 721.031 114.447Z" fill="#FED602"/>
<path d="M427.875 50.8891C434.238 57.6262 436.45 64.0218 436.34 73.1899C435.585 79.7399 432.455 85.1501 427.625 89.5766C420.501 94.9617 413.776 96.1675 405 95.1391C398.63 93.333 392.355 89.9202 388.781 84.182C385.05 76.9989 383.792 70.5106 386.25 62.5766C389.383 54.1356 393.916 49.9631 402 46.1391C411.461 43.7986 419.64 45.8768 427.875 50.8891Z" fill="#2866FE"/>
<path d="M40 51.1389C40.99 51.1389 41.98 51.1389 43 51.1389C44.6875 53.1389 44.6875 53.1389 46 55.1389C45.67 55.4689 45.34 55.7989 45 56.1389C44.8675 57.6027 44.7968 59.0721 44.7539 60.5413C44.721 61.4314 44.6882 62.3215 44.6543 63.2385C44.5932 65.1264 44.5359 67.0145 44.4824 68.9026C44.4483 69.794 44.4141 70.6854 44.3789 71.6038C44.3413 72.8353 44.3413 72.8353 44.303 74.0918C44 76.1389 44 76.1389 42 78.1389C42 70.5489 42 62.9589 42 55.1389C29.46 55.1389 16.92 55.1389 4 55.1389C4.00524 60.9645 4.01047 66.7901 4.01587 72.7922C4.03241 92.0028 4.04352 111.213 4.05181 130.424C4.05697 142.075 4.06401 153.727 4.07544 165.379C4.0854 175.532 4.09186 185.686 4.09409 195.839C4.0954 201.217 4.09847 206.595 4.10573 211.973C4.11251 217.032 4.11461 222.092 4.11311 227.151C4.11338 229.01 4.11538 230.869 4.11921 232.729C4.12416 235.263 4.12299 237.797 4.12025 240.331C4.12317 241.07 4.12608 241.809 4.12908 242.571C4.10936 249.31 4.10936 249.31 3 252.139C2.34 252.469 1.68 252.799 1 253.139C0.67 187.469 0.34 121.799 0 54.1389C5.4613 52.5785 9.42227 51.8611 14.9023 51.9436C15.6249 51.9464 16.3475 51.9493 17.0919 51.9522C19.374 51.9633 21.6556 51.9884 23.9375 52.0139C25.4954 52.024 27.0534 52.0331 28.6113 52.0413C32.4077 52.0632 36.2038 52.0976 40 52.1389C40 51.8089 40 51.4789 40 51.1389Z" fill="#346EFB"/>
<path d="M2 56.1389C2.33 56.1389 2.66 56.1389 3 56.1389C3 120.489 3 184.839 3 251.139C16.53 251.139 30.06 251.139 44 251.139C44.99 252.129 44.99 252.129 46 253.139C41.3517 254.046 36.8385 254.299 32.1172 254.307C31.3805 254.31 30.6438 254.314 29.8848 254.317C28.3368 254.322 26.7887 254.324 25.2407 254.324C22.8751 254.326 20.51 254.345 18.1445 254.364C16.6354 254.366 15.1263 254.368 13.6172 254.369C12.5608 254.38 12.5608 254.38 11.4831 254.391C7.50317 254.373 5.68082 253.979 2 252.139C2 187.459 2 122.779 2 56.1389Z" fill="#0E45F9"/>
<path d="M590 192.139C590.33 192.139 590.66 192.139 591 192.139C591.366 193.866 591.717 195.595 592.062 197.326C592.26 198.289 592.457 199.252 592.66 200.244C593 203.139 593 203.139 592.527 205.29C591.828 209.069 591.877 212.783 591.902 216.61C591.904 217.451 591.905 218.293 591.907 219.16C591.911 220.983 591.917 222.806 591.925 224.629C591.938 227.522 591.944 230.415 591.949 233.309C591.962 240.5 591.986 247.691 592.01 254.882C592.03 260.954 592.046 267.026 592.056 273.098C592.062 275.933 592.075 278.769 592.088 281.604C592.112 290.166 592.086 298.628 591 307.139C590.67 307.139 590.34 307.139 590 307.139C590 269.189 590 231.239 590 192.139Z" fill="#0F48F9"/>
<path d="M552 288.139C552.33 288.139 552.66 288.139 553 288.139C553 294.409 553 300.679 553 307.139C565.21 306.809 577.42 306.479 590 306.139C590.33 302.839 590.66 299.539 591 296.139C593.004 300.147 593.461 301.801 593 306.139C591.72 307.801 591.72 307.801 590 309.139C587.058 309.401 584.333 309.488 581.395 309.432C580.555 309.428 579.716 309.423 578.851 309.419C576.171 309.402 573.492 309.365 570.812 309.326C568.995 309.311 567.178 309.298 565.361 309.285C560.907 309.252 556.454 309.201 552 309.139C550.863 305.073 550.853 301.146 550.875 296.951C550.871 296.215 550.867 295.478 550.863 294.719C550.873 289.266 550.873 289.266 552 288.139Z" fill="#3B6CEF"/>
<path d="M42 96.1389C42.66 96.1389 43.32 96.1389 44 96.1389C45.2823 109.511 45.5853 122.777 44 136.139C44.99 136.469 45.98 136.799 47 137.139C45.515 137.634 45.515 137.634 44 138.139C43.67 140.119 43.34 142.099 43 144.139C43.66 144.469 44.32 144.799 45 145.139C44.01 145.139 43.02 145.139 42 145.139C42 128.969 42 112.799 42 96.1389Z" fill="#225CFC"/>
<path d="M293 239.139C295 241.139 295 241.139 297 251.139C308.22 251.139 319.44 251.139 331 251.139C331 250.479 331 249.819 331 249.139C331.66 249.139 332.32 249.139 333 249.139C332.67 250.789 332.34 252.439 332 254.139C320.12 253.809 308.24 253.479 296 253.139C293.436 247.157 292.632 245.148 293 239.139Z" fill="#1D55FA"/>
<path d="M202 249.139C202.33 249.799 202.66 250.459 203 251.139C214.88 250.809 226.76 250.479 239 250.139C239 251.129 239 252.119 239 253.139C234.159 253.945 229.654 254.207 224.754 254.018C224.098 253.994 223.442 253.971 222.766 253.946C220.698 253.871 218.63 253.786 216.562 253.701C215.149 253.648 213.736 253.595 212.322 253.543C208.881 253.415 205.441 253.279 202 253.139C202 251.819 202 250.499 202 249.139Z" fill="#1952F9"/>
<path d="M91 152.139C91.99 152.139 92.98 152.139 94 152.139C95.8587 154.223 97.5256 156.281 99.1875 158.514C100.165 159.801 101.142 161.087 102.121 162.373C102.846 163.331 102.846 163.331 103.585 164.309C106.175 167.66 108.961 170.854 111.734 174.053C113 176.139 113 176.139 112.703 178.412C112.471 178.982 112.239 179.552 112 180.139C111.074 178.923 111.074 178.923 110.129 177.682C105.15 171.166 100.096 164.753 94.8125 158.479C93.213 156.414 92.0545 154.517 91 152.139Z" fill="#1F5AFC"/>
<path d="M281 106.139C281.33 106.799 281.66 107.459 282 108.139C282.66 108.139 283.32 108.139 284 108.139C284 110.119 284 112.099 284 114.139C283.34 112.819 282.68 111.499 282 110.139C272.1 110.469 262.2 110.799 252 111.139C252 110.149 252 109.159 252 108.139C252.843 108.114 253.686 108.089 254.554 108.063C257.672 107.968 260.79 107.869 263.908 107.767C265.259 107.723 266.61 107.682 267.962 107.642C269.9 107.584 271.839 107.52 273.777 107.455C274.945 107.419 276.113 107.382 277.316 107.344C279.918 107.438 279.918 107.438 281 106.139Z" fill="#1E57FB"/>
<path d="M783 142.139C783.66 142.139 784.32 142.139 785 142.139C785.167 147.105 785.328 152.071 785.482 157.038C785.536 158.728 785.591 160.419 785.648 162.11C785.73 164.535 785.805 166.96 785.879 169.385C785.906 170.145 785.933 170.906 785.961 171.689C786.013 173.505 786.012 175.322 786 177.139C785 178.139 785 178.139 782.683 178.252C781.683 178.247 780.683 178.242 779.652 178.237C778.573 178.233 777.493 178.23 776.381 178.227C775.245 178.218 774.108 178.21 772.938 178.201C771.797 178.197 770.657 178.192 769.482 178.188C766.655 178.176 763.827 178.159 761 178.139C761.33 177.149 761.66 176.159 762 175.139C762.66 175.469 763.32 175.799 764 176.139C765.352 176.21 766.708 176.223 768.062 176.201C769.257 176.19 769.257 176.19 770.477 176.178C771.309 176.165 772.142 176.152 773 176.139C774.646 176.113 776.292 176.092 777.938 176.076C779.034 176.059 779.034 176.059 780.152 176.041C782 176.139 782 176.139 784 177.139C783.67 165.589 783.34 154.039 783 142.139Z" fill="#FEE518"/>
<path d="M551 164.139C555.927 173.992 554.757 185.676 552 196.139C551.67 196.139 551.34 196.139 551 196.139C551 185.579 551 175.019 551 164.139Z" fill="#2258FC"/>
<path d="M60 175.139C60.66 175.139 61.32 175.139 62 175.139C63.827 177.291 65.5492 179.453 67.25 181.701C68.2396 182.99 69.2305 184.278 70.2227 185.565C70.6998 186.184 71.1769 186.804 71.6685 187.442C73.2733 189.487 74.9604 191.446 76.6875 193.389C79 196.139 79 196.139 79 198.139C75.7094 196.731 73.8541 195.113 71.582 192.365C70.6607 191.252 70.6607 191.252 69.7207 190.115C69.091 189.339 68.4613 188.563 67.8125 187.764C67.1712 186.996 66.5299 186.227 65.8691 185.436C60.713 179.142 60.713 179.142 60 175.139Z" fill="#1F57FB"/>
<path d="M715 56.139C718.984 56.114 722.967 56.096 726.951 56.084C728.963 56.0766 730.976 56.0639 732.988 56.0511C739.422 56.0349 745.644 56.1094 752 57.139C752 57.469 752 57.799 752 58.139C751.316 58.1285 750.632 58.118 749.927 58.1072C732.726 57.7886 732.726 57.7886 715.672 59.7015C713.062 60.1289 710.639 60.216 708 60.139C710.647 58.6783 711.894 58.139 715 58.139C715 57.479 715 56.819 715 56.139Z" fill="#FDDB17"/>
<path d="M73 108.139C73.99 108.469 74.98 108.799 76 109.139C75.2639 109.996 74.5279 110.853 73.7695 111.737C66.5509 120.177 66.5509 120.177 60 129.139C59.3623 127.332 59.3623 127.332 59 125.139C60.6757 122.786 62.3147 120.757 64.25 118.639C65.256 117.504 66.2613 116.369 67.2656 115.233C67.7406 114.702 68.2157 114.17 68.7051 113.623C70.2383 111.866 71.6429 110.035 73 108.139Z" fill="#215AFC"/>
<path d="M160 109.139C164.966 109.114 169.932 109.096 174.899 109.084C176.589 109.079 178.28 109.072 179.971 109.063C182.396 109.051 184.821 109.046 187.246 109.041C188.387 109.034 188.387 109.034 189.55 109.026C191.367 109.025 193.184 109.077 195 109.139C196 110.139 196 110.139 196.062 113.701C196.042 114.836 196.021 115.97 196 117.139C194 114.139 194 114.139 193 111.139C182.11 110.809 171.22 110.479 160 110.139C160 109.809 160 109.479 160 109.139Z" fill="#134DFD"/>
<path d="M116 114.139C116.33 115.129 116.66 116.119 117 117.139C115.27 119.662 115.27 119.662 112.812 122.514C111.616 123.918 111.616 123.918 110.395 125.35C109.604 126.27 108.814 127.191 108 128.139C107.282 129.08 106.564 130.021 105.824 130.99C105.222 131.699 104.62 132.408 104 133.139C103.34 133.139 102.68 133.139 102 133.139C102.66 131.489 103.32 129.839 104 128.139C104.66 128.139 105.32 128.139 106 128.139C106.245 127.587 106.49 127.035 106.742 126.467C108.257 123.663 110.111 121.358 112.125 118.889C112.849 117.997 113.574 117.105 114.32 116.186C115.152 115.173 115.152 115.173 116 114.139Z" fill="#1F59FD"/>
<path d="M494 251.139C499.61 251.139 505.22 251.139 511 251.139C511 251.469 511 251.799 511 252.139C515.29 252.469 519.58 252.799 524 253.139C524 253.469 524 253.799 524 254.139C520.688 254.198 517.375 254.233 514.062 254.264C512.673 254.289 512.673 254.289 511.256 254.315C505.181 254.357 499.882 253.671 494 252.139C494 251.809 494 251.479 494 251.139Z" fill="#3772FD"/>
<path d="M518.5 137.951C519.515 137.933 519.515 137.933 520.551 137.914C524.264 137.903 525.83 138.025 529 140.139C518.11 140.634 518.11 140.634 507 141.139C509.116 136.906 514.342 137.955 518.5 137.951Z" fill="#1F58FC"/>
<path d="M591 179.139C593 181.139 593 181.139 593.195 185.053C593.182 186.623 593.158 188.194 593.125 189.764C593.116 190.566 593.107 191.368 593.098 192.194C593.074 194.176 593.038 196.157 593 198.139C592.34 198.139 591.68 198.139 591 198.139C589.686 192.226 589.681 186.168 590 180.139C590.33 179.809 590.66 179.479 591 179.139Z" fill="#3564F0"/>
<path d="M178 173.139C180.587 175.726 181.066 178.022 182.125 181.514C182.478 182.656 182.832 183.798 183.195 184.975C184 188.139 184 188.139 184 192.139C183.34 192.139 182.68 192.139 182 192.139C177.408 179.654 177.408 179.654 178 173.139Z" fill="#235BFA"/>
<path d="M831 221.139C831.99 221.469 832.98 221.799 834 222.139C829.563 228.367 825.082 234.422 820 240.139C819.34 239.809 818.68 239.479 818 239.139C818.436 238.677 818.871 238.216 819.32 237.74C824.014 232.6 827.606 227.207 831 221.139Z" fill="#FDD813"/>
<path d="M354 179.139C354.33 179.139 354.66 179.139 355 179.139C354.52 184.708 353.701 189.81 352 195.139C351.34 195.139 350.68 195.139 350 195.139C349.67 195.799 349.34 196.459 349 197.139C350.585 182.554 350.585 182.554 354 179.139Z" fill="#215AFC"/>
<path d="M47 157.139C49.9774 160.022 52.6494 163.037 55.25 166.264C55.9564 167.133 56.6628 168.002 57.3906 168.897C59 171.139 59 171.139 59 173.139C55.2235 171.625 53.2719 169.412 50.75 166.264C50.0436 165.4 49.3372 164.537 48.6094 163.647C47 161.139 47 161.139 47 157.139Z" fill="#1E56FC"/>
<path d="M164 130.139C166.597 132.736 167.107 135.077 168.188 138.576C168.552 139.73 168.917 140.884 169.293 142.073C170 145.139 170 145.139 169 148.139C169 147.479 169 146.819 169 146.139C168.34 146.139 167.68 146.139 167 146.139C163.556 135.765 163.556 135.765 164 130.139Z" fill="#2058FB"/>
<path d="M464 229.139C464.436 229.514 464.871 229.889 465.32 230.276C469.186 233.598 473.077 236.885 477 240.139C475.375 240.951 475.375 240.951 473 241.139C469.411 238.575 466.293 235.96 464 232.139C464 231.149 464 230.159 464 229.139Z" fill="#2159FC"/>
<path d="M590 192.139C590.33 192.139 590.66 192.139 591 192.139C593.095 200.327 592.866 206.916 591 215.139C590.67 215.139 590.34 215.139 590 215.139C590 207.549 590 199.959 590 192.139Z" fill="#1D53F6"/>
<path d="M346 204.139C346.33 204.139 346.66 204.139 347 204.139C346.52 209.708 345.701 214.81 344 220.139C343.34 220.139 342.68 220.139 342 220.139C341.67 220.799 341.34 221.459 341 222.139C341.616 217.82 342.642 213.887 344.062 209.764C344.425 208.704 344.787 207.645 345.16 206.553C345.437 205.756 345.714 204.96 346 204.139Z" fill="#2159FC"/>
<path d="M369 132.139C369.33 132.139 369.66 132.139 370 132.139C369.567 138.959 368.092 144.055 365 150.139C363.277 146.054 364.927 142.769 366.437 138.889C366.68 138.239 366.923 137.59 367.174 136.92C367.773 135.323 368.385 133.73 369 132.139Z" fill="#1D56FB"/>
<path d="M251 113.139C252.453 116.97 251.503 119.481 250.188 123.264C249.83 124.318 249.473 125.373 249.105 126.459C248 129.139 248 129.139 246 131.139C246.56 124.369 247.862 119.192 251 113.139Z" fill="#1C54FB"/>
<path d="M109 236.139C113.218 240.109 116.612 244.447 120 249.139C119.01 249.469 118.02 249.799 117 250.139C115.658 248.375 114.327 246.602 113 244.826C112.257 243.84 111.515 242.854 110.75 241.838C109 239.139 109 239.139 109 236.139Z" fill="#1E56FC"/>
<path d="M191 212.139C192.405 214.733 193.577 217.409 194.687 220.139C194.959 220.799 195.231 221.459 195.511 222.139C196.084 224.484 195.753 225.873 195 228.139C195 227.479 195 226.819 195 226.139C194.34 226.139 193.68 226.139 193 226.139C189.371 216.729 189.371 216.729 191 212.139Z" fill="#2058FC"/>
<path d="M57 130.139C57 133.857 56.1409 134.457 53.6875 137.139C53.0726 137.82 52.4577 138.5 51.8242 139.201C50.2446 140.879 48.6419 142.522 47 144.139C47.3203 138.854 50.3873 135.707 54 132.139C54.99 131.479 55.98 130.819 57 130.139Z" fill="#1E58FC"/>
<path d="M489 200.139C492.723 201.38 493.228 203.009 495.016 206.35C496.163 208.435 497.515 210.283 499 212.139C498.67 212.799 498.34 213.459 498 214.139C493.992 210.465 491.474 206.995 489 202.139C489 201.479 489 200.819 489 200.139Z" fill="#1E58FC"/>
<path d="M296 152.139C296.33 152.799 296.66 153.459 297 154.139C297.66 154.139 298.32 154.139 299 154.139C300.757 158.642 301.193 162.315 301 167.139C298.828 164.967 298.321 163.639 297.375 160.764C297.115 159.993 296.854 159.222 296.586 158.428C296 156.139 296 156.139 296 152.139Z" fill="#225BFC"/>
<path d="M43.0001 128.139C43.3301 128.139 43.6601 128.139 44.0001 128.139C44.0001 130.779 44.0001 133.419 44.0001 136.139C44.9901 136.469 45.9801 136.799 47.0001 137.139C46.0101 137.469 45.0201 137.799 44.0001 138.139C43.6701 140.119 43.3401 142.099 43.0001 144.139C43.6601 144.469 44.3201 144.799 45.0001 145.139C44.0101 145.139 43.0201 145.139 42.0001 145.139C41.9733 142.493 41.9533 139.847 41.9376 137.201C41.9292 136.447 41.9208 135.692 41.9122 134.914C41.9036 132.989 41.9479 131.064 42.0001 129.139C42.3301 128.809 42.6601 128.479 43.0001 128.139Z" fill="#1B57FD"/>
<path d="M488 164.139C488.98 167.078 489.038 168.197 488.66 171.151C488.567 171.908 488.473 172.665 488.377 173.446C488.273 174.231 488.169 175.017 488.063 175.826C487.963 176.624 487.863 177.421 487.76 178.242C487.513 180.209 487.257 182.174 487 184.139C486.67 184.139 486.34 184.139 486 184.139C485.805 181.89 485.619 179.639 485.438 177.389C485.333 176.136 485.229 174.883 485.121 173.592C485.021 170.744 485.094 168.796 486 166.139C486.66 166.139 487.32 166.139 488 166.139C488 165.479 488 164.819 488 164.139Z" fill="#3672FE"/>
<path d="M797 51.1389C801.776 52.7807 805.794 55.4044 810 58.1389C808.68 58.4689 807.36 58.7989 806 59.1389C806 58.4789 806 57.8189 806 57.1389C804.608 57.0461 804.608 57.0461 803.188 56.9514C800 56.1389 800 56.1389 798.125 53.5764C797.754 52.772 797.382 51.9677 797 51.1389Z" fill="#FCD612"/>
<path d="M160 54.1389C161.65 54.1389 163.3 54.1389 165 54.1389C164.427 58.0082 162.61 60.2911 160 63.1389C159.34 63.1389 158.68 63.1389 158 63.1389C158.495 62.0252 158.495 62.0252 159 60.8889C160.228 58.0001 160.228 58.0001 160 54.1389Z" fill="#1E55FB"/>
<path d="M142 82.1389C142.33 83.1289 142.66 84.1189 143 85.1389C140.36 88.1089 137.72 91.0789 135 94.1389C134.34 93.8089 133.68 93.4789 133 93.1389C134.312 91.4925 135.624 89.8468 136.938 88.2014C137.668 87.2849 138.399 86.3684 139.152 85.4241C141 83.1389 141 83.1389 142 82.1389Z" fill="#1E58FC"/>
<path d="M138 211.139C138.99 211.139 139.98 211.139 141 211.139C142.641 212.783 142.641 212.783 144.25 214.951C144.791 215.659 145.333 216.367 145.891 217.096C146.257 217.77 146.623 218.444 147 219.139C146.67 220.129 146.34 221.119 146 222.139C145.036 221.06 144.079 219.976 143.125 218.889C142.591 218.286 142.058 217.682 141.508 217.061C140.02 215.165 138.997 213.326 138 211.139Z" fill="#1E58FB"/>
<path d="M816 240.139C816.99 240.469 817.98 240.799 819 241.139C817.509 244.935 815.343 246.856 812 249.139C811.01 249.139 810.02 249.139 809 249.139C809 249.799 809 250.459 809 251.139C808.34 250.809 807.68 250.479 807 250.139C808 248.139 808 248.139 810.375 246.826C813.32 244.933 814.419 243.218 816 240.139Z" fill="#FCD712"/>
<path d="M115 182.139C119.3 183.731 121.397 186.494 124 190.139C123.67 191.129 123.34 192.119 123 193.139C121.664 191.495 120.331 189.849 119 188.201C118.257 187.285 117.515 186.368 116.75 185.424C115 183.139 115 183.139 115 182.139Z" fill="#1C55FC"/>
<path d="M108 67.1389C108 70.918 107.003 71.6 104.5 74.3264C103.525 75.3996 103.525 75.3996 102.531 76.4944C102.026 77.0371 101.521 77.5798 101 78.1389C100.67 77.1489 100.34 76.1589 100 75.1389C101.145 73.3499 101.145 73.3499 102.812 71.5139C103.355 70.9029 103.898 70.2919 104.457 69.6624C106 68.1389 106 68.1389 108 67.1389Z" fill="#1F57FB"/>
<path d="M551 271.139C551.99 271.469 552.98 271.799 554 272.139C553.67 276.759 553.34 281.379 553 286.139C552.34 285.809 551.68 285.479 551 285.139C551 280.519 551 275.899 551 271.139Z" fill="#255BF9"/>
<path d="M375 112.139C375.66 112.139 376.32 112.139 377 112.139C376.503 117.112 375.447 120.777 373 125.139C371.812 121.709 372.198 119.761 373.438 116.389C373.725 115.59 374.012 114.79 374.309 113.967C374.537 113.364 374.765 112.76 375 112.139Z" fill="#1B54FB"/>
<path d="M793 284.139C790.31 286.828 787.547 287.832 784 289.139C783.01 288.809 782.02 288.479 781 288.139C784.644 284.148 787.736 284.022 793 284.139Z" fill="#FDD813"/>
<path d="M194 226.139C194.33 226.799 194.66 227.459 195 228.139C195.66 228.139 196.32 228.139 197 228.139C198.125 235.764 198.125 235.764 197 239.139C196.34 239.139 195.68 239.139 195 239.139C195.021 238.108 195.041 237.076 195.062 236.014C195.007 232.587 194.654 229.493 194 226.139Z" fill="#366EF8"/>
<path d="M98 222.139C101.288 225.249 103.837 228.155 106 232.139C102.204 230.648 100.283 228.482 98 225.139C98 224.149 98 223.159 98 222.139Z" fill="#1E58FC"/>
<path d="M632 199.139C634.458 202.826 635.012 205.836 636 210.139C634.68 209.479 633.36 208.819 632 208.139C632 205.169 632 202.199 632 199.139Z" fill="#FDD712"/>
<path d="M213 172.139C216 174.139 216 174.139 217 177.139C217.04 179.472 217.044 181.806 217 184.139C214.579 181.718 214.472 180.338 213.875 177.014C213.707 176.104 213.54 175.194 213.367 174.256C213.246 173.557 213.125 172.859 213 172.139Z" fill="#1F58FC"/>
<path d="M339 114.139C340.124 117.443 339.895 119.19 338.562 122.389C338.275 123.095 337.987 123.802 337.691 124.53C337.463 125.061 337.235 125.592 337 126.139C336.67 126.139 336.34 126.139 336 126.139C335.704 121.116 336.015 118.243 339 114.139Z" fill="#1F59FD"/>
<path d="M774 42.1389C775.439 42.4225 776.876 42.7161 778.312 43.0139C779.113 43.1763 779.914 43.3388 780.738 43.5061C783 44.1389 783 44.1389 786 46.1389C783.512 47.0274 782.416 47.3155 779.938 46.2639C779.298 45.8927 778.659 45.5214 778 45.1389C777.01 44.8089 776.02 44.4789 775 44.1389C774.67 43.4789 774.34 42.8189 774 42.1389Z" fill="#FCD817"/>
<path d="M170 250.139C170.66 250.469 171.32 250.799 172 251.139C171.67 252.129 171.34 253.119 171 254.139C169.209 254.193 167.417 254.232 165.625 254.264C164.627 254.287 163.63 254.31 162.602 254.334C160 254.139 160 254.139 158 252.139C161.96 252.139 165.92 252.139 170 252.139C170 251.479 170 250.819 170 250.139Z" fill="#3069F6"/>
<path d="M87 208.139C89.932 210.992 92.6432 213.79 95 217.139C91.8649 216.803 90.9748 216.112 88.75 213.764C87 211.139 87 211.139 87 208.139Z" fill="#1B53FD"/>
<path d="M208 156.139C208.33 156.799 208.66 157.459 209 158.139C209.66 158.139 210.32 158.139 211 158.139C211.33 161.109 211.66 164.079 212 167.139C210 166.139 210 166.139 208.875 163.326C208 160.139 208 160.139 208 156.139Z" fill="#1E56FB"/>
<path d="M544 114.139C550.476 114.75 550.476 114.75 552.938 116.576C554 118.139 554 118.139 554 120.139C550.667 118.472 547.333 116.806 544 115.139C544 114.809 544 114.479 544 114.139Z" fill="#225BFC"/>
<path d="M781 290.139C777.38 291.455 774.904 292.139 771 292.139C771.33 291.149 771.66 290.159 772 289.139C775.779 288.089 777.649 288.029 781 290.139Z" fill="#FDD612"/>
<path d="M478 242.139C481.791 243.588 485.387 245.291 489 247.139C489 247.469 489 247.799 489 248.139C484.748 248.503 482.415 247.7 479 245.139C478.67 244.149 478.34 243.159 478 242.139Z" fill="#1E56FC"/>
<path d="M251 209.139C251.33 209.139 251.66 209.139 252 209.139C251.67 212.109 251.34 215.079 251 218.139C250.34 218.139 249.68 218.139 249 218.139C248.67 218.799 248.34 219.459 248 220.139C248.309 218.68 248.622 217.222 248.938 215.764C249.112 214.952 249.286 214.14 249.465 213.303C250 211.139 250 211.139 251 209.139Z" fill="#1E57FC"/>
<path d="M307 187.139C310.018 191.667 311.243 193.663 311 199.139C309 198.139 309 198.139 307.875 194.826C307 191.139 307 191.139 307 187.139Z" fill="#1A57FD"/>
<path d="M271 172.139C273.278 174.417 274.052 176.077 275 179.139C274.625 181.451 274.625 181.451 274 183.139C274 182.479 274 181.819 274 181.139C273.34 181.139 272.68 181.139 272 181.139C271.67 178.169 271.34 175.199 271 172.139Z" fill="#1F56FC"/>
<path d="M127 197.139C130.335 198.519 132.186 199.988 134 203.139C133.67 204.129 133.34 205.119 133 206.139C131.997 204.829 130.998 203.516 130 202.201C129.443 201.471 128.886 200.74 128.312 199.987C127 198.139 127 198.139 127 197.139Z" fill="#1751FC"/>
<path d="M95 140.139C95.33 141.129 95.66 142.119 96 143.139C94.0625 145.826 94.0625 145.826 92 148.139C91.01 147.809 90.02 147.479 89 147.139C90.98 144.829 92.96 142.519 95 140.139Z" fill="#1F57FC"/>
<path d="M332 132.139C333.424 137.834 333.424 137.834 333 141.139C331.68 142.129 330.36 143.119 329 144.139C329.99 140.179 330.98 136.219 332 132.139Z" fill="#336DFC"/>
<path d="M80 200.139C84 201.472 84.8378 203.635 87 207.139C84.2017 206.753 83.1794 206.338 81.25 204.201C80 202.139 80 202.139 80 200.139Z" fill="#1E56FC"/>
<path d="M99 79.1389C97.5575 82.5048 95.6674 84.6494 93 87.1389C93.376 84.3568 93.6732 82.551 95.4375 80.3264C97 79.1389 97 79.1389 99 79.1389Z" fill="#1F59FB"/>
<path d="M390 55.1389C391.159 58.6176 390.774 59.4811 389.562 62.8264C389.275 63.6347 388.987 64.4429 388.691 65.2756C388.349 66.198 388.349 66.198 388 67.1389C387.67 67.1389 387.34 67.1389 387 67.1389C386.631 59.7543 386.631 59.7543 388.5 56.6389C388.995 56.1439 389.49 55.6489 390 55.1389Z" fill="#2158F8"/>
<path d="M149 225.139C151.468 226.291 153.048 227.187 155 229.139C154.625 231.264 154.625 231.264 154 233.139C153.164 231.995 152.331 230.849 151.5 229.701C151.036 229.063 150.572 228.425 150.094 227.768C149 226.139 149 226.139 149 225.139Z" fill="#1B54FC"/>
<path d="M448 161.139C449.461 163.786 450 165.033 450 168.139C449.34 168.139 448.68 168.139 448 168.139C448 170.119 448 172.099 448 174.139C447.67 174.139 447.34 174.139 447 174.139C446.923 169.623 446.898 165.548 448 161.139Z" fill="#3872FD"/>
<path d="M236 156.139C237.98 157.129 237.98 157.129 240 158.139C239.34 159.459 238.68 160.779 238 162.139C237.34 162.139 236.68 162.139 236 162.139C236 160.159 236 158.179 236 156.139Z" fill="#225CFC"/>
<path d="M433 76.1389C433.33 76.1389 433.66 76.1389 434 76.1389C433.125 82.8889 433.125 82.8889 432 85.1389C431.01 84.8089 430.02 84.4789 429 84.1389C430.32 81.4989 431.64 78.8589 433 76.1389Z" fill="#1D53FB"/>
<path d="M668 76.1389C669.32 76.4689 670.64 76.7989 672 77.1389C669.69 78.7889 667.38 80.4389 665 82.1389C666 78.1389 666 78.1389 668 76.1389Z" fill="#FED812"/>
<path d="M409.188 45.9514C410.58 46.0442 410.58 46.0442 412 46.1389C412 46.7989 412 47.4589 412 48.1389C407.545 48.6339 407.545 48.6339 403 49.1389C406 46.1389 406 46.1389 409.188 45.9514Z" fill="#1C56FD"/>
<path d="M157 235.139C160.161 236.509 160.993 237.128 163 240.139C162.67 241.129 162.34 242.119 162 243.139C157 237.389 157 237.389 157 235.139Z" fill="#1A53FC"/>
<path d="M338 229.139C338.33 229.139 338.66 229.139 339 229.139C339.188 232.014 339.188 232.014 339 235.139C338.01 235.799 337.02 236.459 336 237.139C336.875 230.264 336.875 230.264 338 229.139Z" fill="#1D54FB"/>
<path d="M548 202.139C548.33 202.799 548.66 203.459 549 204.139C547.02 207.109 547.02 207.109 545 210.139C544.25 208.389 544.25 208.389 544 206.139C545.938 203.889 545.938 203.889 548 202.139Z" fill="#2058FC"/>
<path d="M487 186.139C487.33 186.139 487.66 186.139 488 186.139C488.33 189.439 488.66 192.739 489 196.139C488.67 195.479 488.34 194.819 488 194.139C487.34 194.139 486.68 194.139 486 194.139C486.33 191.499 486.66 188.859 487 186.139Z" fill="#356EFC"/>
<path d="M490 156.139C490.33 156.139 490.66 156.139 491 156.139C490.385 162.662 490.385 162.662 488.438 165.076C487.963 165.427 487.489 165.778 487 166.139C487.507 162.42 488.116 159.404 490 156.139Z" fill="#1B54FC"/>
<path d="M451 151.139C452.062 152.951 452.062 152.951 453 155.139C452.67 156.129 452.34 157.119 452 158.139C451.34 158.139 450.68 158.139 450 158.139C449.67 159.129 449.34 160.119 449 161.139C449.875 153.389 449.875 153.389 451 151.139Z" fill="#326CFE"/>
<path d="M117 54.1389C117.33 55.4589 117.66 56.7789 118 58.1389C116.35 59.4589 114.7 60.7789 113 62.1389C113.599 58.783 114.846 56.7609 117 54.1389Z" fill="#225BFB"/>
<path d="M750 198.139C753.96 198.139 757.92 198.139 762 198.139C762 198.469 762 198.799 762 199.139C758.04 199.139 754.08 199.139 750 199.139C750 198.809 750 198.479 750 198.139Z" fill="#FEDB01"/>
<path d="M807 198.139C809.64 198.139 812.28 198.139 815 198.139C815 198.469 815 198.799 815 199.139C812.69 199.139 810.38 199.139 808 199.139C807.67 199.799 807.34 200.459 807 201.139C807 200.149 807 199.159 807 198.139Z" fill="#FDDA01"/>
<path d="M776 198.139C778.31 198.139 780.62 198.139 783 198.139C783 198.469 783 198.799 783 199.139C780.69 199.139 778.38 199.139 776 199.139C776 198.809 776 198.479 776 198.139Z" fill="#FFDB00"/>
<path d="M767 198.139C768.98 198.139 770.96 198.139 773 198.139C773 198.469 773 198.799 773 199.139C771.02 199.139 769.04 199.139 767 199.139C767 198.809 767 198.479 767 198.139Z" fill="#FEDB01"/>
<path d="M818 198.139C819.65 198.139 821.3 198.139 823 198.139C823 198.469 823 198.799 823 199.139C821.35 199.139 819.7 199.139 818 199.139C818 198.809 818 198.479 818 198.139Z" fill="#FDD902"/>
<path d="M186 211.139C186.99 211.634 186.99 211.634 188 212.139C187.67 212.799 187.34 213.459 187 214.139C186.67 213.149 186.34 212.159 186 211.139Z" fill="#3A71FB"/>
<path d="M745 198.139C749 199.139 749 199.139 749 199.139L745 198.139Z" fill="#FEDA01"/>
<path d="M801 106.139C805 107.139 805 107.139 805 107.139L801 106.139Z" fill="#FDD902"/>
<path d="M459 228.139C459.66 228.799 460.32 229.459 461 230.139C460.34 230.139 459.68 230.139 459 230.139C459 229.479 459 228.819 459 228.139Z" fill="#3E72F8"/>
<path d="M763 198.139C766 199.139 766 199.139 766 199.139L763 198.139Z" fill="#FEDB02"/>
<path d="M746 59.1389C749 60.1389 749 60.1389 749 60.1389L746 59.1389Z" fill="#FFD801"/>
<path d="M578 310.139C580 311.139 580 311.139 580 311.139L578 310.139Z" fill="#587CD0"/>
<path d="M743 274.139C745 275.139 745 275.139 745 275.139L743 274.139Z" fill="#FED902"/>
<path d="M726 274.139C728 275.139 728 275.139 728 275.139L726 274.139Z" fill="#FCD801"/>
<path d="M757 272.139C759 273.139 759 273.139 759 273.139L757 272.139Z" fill="#FBD701"/>
<path d="M509 255.139C511 256.139 511 256.139 511 256.139L509 255.139Z" fill="#4277F3"/>
<path d="M505 255.139C507 256.139 507 256.139 507 256.139L505 255.139Z" fill="#4376F5"/>
<path d="M537 148.139C539 149.139 539 149.139 539 149.139L537 148.139Z" fill="#3D70FB"/>
<path d="M508 143.139C510 144.139 510 144.139 510 144.139L508 143.139Z" fill="#4177FD"/>
<path d="M520 141.139C522 142.139 522 142.139 522 142.139L520 141.139Z" fill="#3D74FD"/>
<path d="M502 105.139C504 106.139 504 106.139 504 106.139L502 105.139Z" fill="#4C79E8"/>
<path d="M696 104.139C698 105.139 698 105.139 698 105.139L696 104.139Z" fill="#FEDA00"/>
<path d="M515 104.139C517 105.139 517 105.139 517 105.139L515 104.139Z" fill="#4775E8"/>
<path d="M506 104.139C508 105.139 508 105.139 508 105.139L506 104.139Z" fill="#4E7CE9"/>
<path d="M702 63.1389C704 64.1389 704 64.1389 704 64.1389L702 63.1389Z" fill="#F9D603"/>
</svg>
